HIERARCHY
ROOT Hips
{
    OFFSET 0.000000 0.000000 0.000000
    CHANNELS 6 Xposition Yposition Zposition Zrotation Xrotation Yrotation
    JOINT Spine
    {
        OFFSET -0.000000 7.236184 0.000000
        CHANNELS 3 Zrotation Xrotation Yrotation
        JOINT Spine1
        {
            OFFSET -0.000000 20.420147 0.000000
            CHANNELS 3 Zrotation Xrotation Yrotation
            JOINT Neck
            {
                OFFSET -0.000000 20.336288 1.848754
                CHANNELS 3 Zrotation Xrotation Yrotation
                JOINT Head
                {
                    OFFSET -0.000000 12.354461 -1.764923
                    CHANNELS 3 Zrotation Xrotation Yrotation
                    End Site
                    {
                        OFFSET -0.000000 22.061537 0.000000
                    }
                }
            }
            JOINT LeftShoulder
            {
                OFFSET 3.573296 18.396038 -0.314103
                CHANNELS 3 Zrotation Xrotation Yrotation
                JOINT LeftArm
                {
                    OFFSET 10.880760 0.000000 0.000000
                    CHANNELS 3 Zrotation Xrotation Yrotation
                    JOINT LeftForeArm
                    {
                        OFFSET 27.185530 0.000000 0.000000
                        CHANNELS 3 Zrotation Xrotation Yrotation
                        JOINT LeftHand
                        {
                            OFFSET 27.825975 0.000000 0.000000
                            CHANNELS 3 Zrotation Xrotation Yrotation
                            End Site
                            {
                                OFFSET 13.236923 0.000000 0.000000
                            }
                        }
                    }
                }
            }
            JOINT RightShoulder
            {
                OFFSET -3.474926 18.396038 -0.314103
                CHANNELS 3 Zrotation Xrotation Yrotation
                JOINT RightArm
                {
                    OFFSET -10.880760 0.000000 0.000000
                    CHANNELS 3 Zrotation Xrotation Yrotation
                    JOINT RightForeArm
                    {
                        OFFSET -27.185530 0.000000 0.000000
                        CHANNELS 3 Zrotation Xrotation Yrotation
                        JOINT RightHand
                        {
                            OFFSET -27.825975 0.000000 0.000000
                            CHANNELS 3 Zrotation Xrotation Yrotation
                            End Site
                            {
                                OFFSET -13.236923 0.000000 0.000000
                            }
                        }
                    }
                }
            }
        }
    }
    JOINT LeftUpLeg
    {
        OFFSET 8.824615 0.000000 0.000000
        CHANNELS 3 Zrotation Xrotation Yrotation
        JOINT LeftLeg
        {
            OFFSET -0.000000 -35.111282 0.000000
            CHANNELS 3 Zrotation Xrotation Yrotation
            JOINT LeftFoot
            {
                OFFSET -0.000000 -42.324711 0.000000
                CHANNELS 3 Zrotation Xrotation Yrotation
                JOINT LeftToeBase
                {
                    OFFSET -0.000000 -5.735999 13.236923
                    CHANNELS 3 Zrotation Xrotation Yrotation
                    End Site
                    {
                        OFFSET -0.000000 0.000000 3.529846
                    }
                }
            }
        }
    }
    JOINT RightUpLeg
    {
        OFFSET -8.824615 0.000000 0.000000
        CHANNELS 3 Zrotation Xrotation Yrotation
        JOINT RightLeg
        {
            OFFSET -0.000000 -35.111282 0.000000
            CHANNELS 3 Zrotation Xrotation Yrotation
            JOINT RightFoot
            {
                OFFSET -0.000000 -42.324711 0.000000
                CHANNELS 3 Zrotation Xrotation Yrotation
                JOINT RightToeBase
                {
                    OFFSET -0.000000 -5.735999 13.236923
                    CHANNELS 3 Zrotation Xrotation Yrotation
                    End Site
                    {
                        OFFSET -0.000000 0.000000 3.529846
                    }
                }
            }
        }
    }
}
MOTION
Frames:    14
Frame Time:    0.008333
-4.716958    80.116486    109.887611    -2.878354    -9.755553    -175.341599    -4.098311    -18.118362    -0.224616    0.399457    9.751120    0.395027    2.995348    2.329825    -1.880794    2.718709    -11.100489    -1.696012    -0.759027    19.100828    -1.348715    -43.894909    43.023743    -41.261932    -0.372762    -5.860603    -16.194717    14.493089    -5.538953    2.958650    8.837276    19.966198    -5.307501    31.704357    47.000301    46.036270    -0.905417    -10.153912    20.880604    -15.641322    -9.499749    -3.617787    -2.877620    -8.464617    -7.692067    -1.793589    12.062824    -2.237264    -0.922764    -13.534525    -4.277782    -0.789837    1.246255    0.873564    -5.094558    -2.543917    0.258492    4.127967    3.150177    4.440226    -4.472705    -9.643145    -15.535589    0.198763    -0.308085    -0.215069    
-4.659413    80.213890    110.035835    -2.422446    -9.097762    -175.659302    -3.401283    -16.836369    0.076556    0.308327    9.082734    0.555548    2.992631    2.295228    -1.874836    2.709418    -11.132374    -1.691826    -0.744276    19.083277    -1.364096    -43.918774    42.969440    -41.207417    -0.437517    -5.920386    -16.404699    14.325261    -5.614393    2.948514    8.819931    19.945740    -5.294549    31.637945    47.007858    46.060154    -0.847466    -10.295872    21.227016    -15.353404    -9.665917    -3.566106    -2.255468    -8.099174    -7.100514    -1.855535    12.351001    -2.457244    -0.907372    -13.582673    -4.215948    -0.800466    1.244540    0.885322    -4.449727    -2.396235    0.815840    3.984734    3.618050    4.096725    -4.405633    -9.668682    -15.334389    0.195275    -0.323761    -0.211298    
-4.612120    80.290543    110.143684    -2.055248    -8.594488    -175.906982    -2.864409    -15.829007    0.296296    0.240330    8.555670    0.676653    2.990199    2.258462    -1.868114    2.701071    -11.165556    -1.686764    -0.726608    19.062178    -1.380691    -43.944096    42.914120    -41.148945    -0.500392    -5.964680    -16.647438    14.172221    -5.674296    2.936440    8.799453    19.922499    -5.281541    31.569605    47.020035    46.078281    -0.790574    -10.447751    21.617649    -15.019648    -9.844625    -3.501785    -1.758417    -7.815838    -6.642764    -1.905937    12.579422    -2.628795    -0.897117    -13.625005    -4.173061    -0.812174    1.241326    0.898276    -3.932209    -2.293313    1.240257    3.870564    4.007187    3.832485    -4.353724    -9.693587    -15.180195    0.191838    -0.342060    -0.207585    
-4.573392    80.350952    110.220505    -1.759894    -8.207387    -176.103134    -2.447229    -15.032761    0.458922    0.188698    8.138617    0.768451    2.988266    2.220146    -1.860374    2.693288    -11.201514    -1.680519    -0.705285    19.037378    -1.398492    -43.971268    42.857544    -41.085606    -0.560794    -5.999770    -16.929884    14.005476    -5.725839    2.920708    8.775222    19.896460    -5.267855    31.497175    47.038265    46.092003    -0.736297    -10.610553    22.058882    -14.631857    -10.036941    -3.422541    -1.361480    -7.595703    -6.284081    -1.945627    12.764262    -2.760554    -0.891504    -13.663836    -4.146811    -0.825007    1.236395    0.912477    -3.516104    -2.229206    1.564226    3.778867    4.344496    3.629419    -4.313422    -9.720227    -15.060339    0.188487    -0.363495    -0.203965    
-4.541962    80.398117    110.272766    -1.524304    -7.911554    -176.259232    -2.123791    -14.406091    0.579058    0.149286    7.811398    0.837301    2.987284    2.180598    -1.851431    2.685610    -11.240348    -1.673055    -0.679452    19.008816    -1.417514    -44.000374    42.800442    -41.017731    -0.617470    -6.031204    -17.255543    13.803393    -5.775304    2.898812    8.746993    19.867443    -5.252958    31.419802    47.063229    46.102226    -0.685923    -10.782240    22.551670    -14.191312    -10.240253    -3.328717    -1.047305    -7.427387    -6.001132    -1.975311    12.917447    -2.860168    -0.889876    -13.700863    -4.134982    -0.838798    1.230257    0.927740    -3.183258    -2.199944    1.808021    3.705068    4.647421    3.476104    -4.282026    -9.750029    -14.966701    0.185309    -0.388698    -0.200533    
-4.516749    80.434631    110.306213    -1.338424    -7.688076    -176.384155    -1.874608    -13.914950    0.667104    0.119117    7.556228    0.888030    2.987780    2.140453    -1.841036    2.677237    -11.282133    -1.664485    -0.648788    18.977325    -1.437164    -44.030003    42.744293    -40.947342    -0.669072    -6.063034    -17.625000    13.556481    -5.827053    2.868283    8.714888    19.835768    -5.236451    31.338308    47.094086    46.109383    -0.640505    -10.958394    23.092682    -13.706662    -10.449037    -3.223373    -0.802084    -7.303297    -5.774943    -1.995104    13.049498    -2.935396    -0.891582    -13.737435    -4.135101    -0.852696    1.222085    0.943126    -2.918707    -2.203359    1.986584    3.645121    4.930172    3.363051    -4.257204    -9.784081    -14.891991    0.182280    -0.417739    -0.197262    
-4.496314    80.463097    110.325790    -1.190170    -7.517982    -176.486710    -1.680192    -13.523608    0.731897    0.095558    7.354786    0.925044    2.990191    2.099955    -1.828983    2.667667    -11.327788    -1.654558    -0.612012    18.942940    -1.457279    -44.059357    42.689938    -40.875614    -0.715284    -6.097617    -18.044819    13.260653    -5.883778    2.826268    8.678298    19.801210    -5.217826    31.251945    47.130184    46.114475    -0.599942    -11.136969    23.688087    -13.181576    -10.660559    -3.109362    -0.609572    -7.215043    -5.587090    -2.005795    13.171626    -2.994466    -0.895824    -13.775524    -4.144236    -0.865408    1.212217    0.957202    -2.705318    -2.236621    2.115319    3.595366    5.207891    3.282638    -4.237538    -9.823379    -14.832123    0.179529    -0.451089    -0.194294    
-4.479869    80.485176    110.335228    -1.072499    -7.390005    -176.572144    -1.529112    -13.210397    0.778736    0.077105    7.195417    0.950956    2.994680    2.059655    -1.815121    2.656701    -11.377009    -1.643302    -0.568921    18.906845    -1.476552    -44.085510    42.639977    -40.806843    -0.754107    -6.134758    -18.513872    12.923390    -5.944749    2.771667    8.637554    19.764370    -5.197072    31.162027    47.169365    46.118385    -0.564436    -11.312671    24.333445    -12.629788    -10.868338    -2.991257    -0.460661    -7.158753    -5.425941    -2.007220    13.291556    -3.044146    -0.902198    -13.816130    -4.158839    -0.874579    1.199912    0.967367    -2.532966    -2.298473    2.203311    3.553245    5.489227    3.229525    -4.221436    -9.868439    -14.783590    0.177077    -0.489323    -0.191651    
-4.466661    80.502304    110.337700    -0.978772    -7.294182    -176.645081    -1.411194    -12.955338    0.811868    0.062165    7.067179    0.968230    3.002012    2.020543    -1.799262    2.643520    -11.430709    -1.630782    -0.518854    18.869423    -1.494888    -44.106930    42.596455    -40.743172    -0.783819    -6.171632    -19.032537    12.557496    -6.006215    2.705828    8.592931    19.725376    -5.174015    31.067802    47.211170    46.122562    -0.534209    -11.483002    25.027990    -12.060680    -11.069120    -2.871993    -0.346605    -7.130939    -5.282465    -2.000074    13.416492    -3.088858    -0.909921    -13.860366    -4.175746    -0.877370    1.185547    0.970478    -2.392631    -2.387664    2.259920    3.517314    5.782705    3.200993    -4.208837    -9.920102    -14.746994    0.174834    -0.532299    -0.189235    
-4.456031    80.515671    110.335663    -0.903118    -7.222392    -176.709641    -1.317865    -12.741500    0.834574    0.049476    6.960843    0.978733    3.012531    1.982733    -1.781186    2.627839    -11.489099    -1.616800    -0.460889    18.830017    -1.512445    -44.122173    42.562412    -40.686100    -0.801460    -6.204071    -19.605267    12.175585    -6.062497    2.633246    8.544723    19.685022    -5.148610    30.963221    47.257133    46.131699    -0.510530    -11.648655    25.777412    -11.476974    -11.262961    -2.752874    -0.259859    -7.129249    -5.149626    -1.984944    13.553309    -3.131383    -0.918804    -13.909441    -4.192884    -0.871788    1.168713    0.964333    -2.276104    -2.504495    2.292623    3.485896    6.097361    3.193864    -4.198930    -9.979343    -14.721516    0.172792    -0.580565    -0.187037    
-4.447721    80.525925    110.331192    -0.842540    -7.169933    -176.767914    -1.244379    -12.559030    0.848963    0.038217    6.870446    0.983595    3.026735    1.947392    -1.760772    2.608830    -11.552087    -1.601557    -0.395710    18.788557    -1.528844    -44.129040    42.541515    -40.638008    -0.803878    -6.226822    -20.225384    11.798947    -6.106246    2.560886    8.493438    19.643713    -5.121299    30.845158    47.309467    46.149670    -0.495841    -11.806837    26.572989    -10.890542    -11.446030    -2.635364    -0.196664    -7.152668    -5.025181    -1.962347    13.705845    -3.170921    -0.928866    -13.963943    -4.210279    -0.857518    1.149699    0.948580    -2.179679    -2.647645    2.307551    3.458920    6.435319    3.207098    -4.192042    -10.046102    -14.709398    0.170887    -0.633770    -0.184989    
-4.441404    80.533669    110.325912    -0.793596    -7.132086    -176.822174    -1.185637    -12.397989    0.856815    0.027296    6.790451    0.984001    3.044673    1.914971    -1.737896    2.586952    -11.619842    -1.584811    -0.322876    18.744982    -1.544723    -44.126217    42.536095    -40.600403    -0.788590    -6.237480    -20.892536    11.438936    -6.133895    2.491731    8.439814    19.601597    -5.091553    30.709414    47.369953    46.179398    -0.492485    -11.956444    27.415295    -10.303454    -11.616569    -2.518154    -0.152713    -7.200573    -4.907110    -1.933121    13.879119    -3.206251    -0.940411    -14.024980    -4.229006    -0.836221    1.127112    0.925058    -2.098681    -2.817143    2.310003    3.435633    6.801792    3.239304    -4.187893    -10.121154    -14.711709    0.169166    -0.692813    -0.183141    
-4.436885    80.539299    110.321190    -0.753775    -7.105692    -176.874313    -1.137959    -12.250419    0.859446    0.016171    6.716170    0.980635    3.066900    1.885594    -1.712095    2.560961    -11.692909    -1.566371    -0.242216    18.699032    -1.559744    -44.110909    42.548965    -40.575672    -0.753979    -6.236815    -21.609289    11.099968    -6.145579    2.424949    8.383700    19.558840    -5.059730    30.551956    47.439983    46.224670    -0.503343    -12.095547    28.307596    -9.714251    -11.771864    -2.398953    -0.125243    -7.274115    -4.795895    -1.897946    14.079080    -3.232752    -0.953958    -14.094215    -4.252133    -0.810687    1.100443    0.896855    -2.029926    -3.014574    2.304348    3.415959    7.202804    3.291372    -4.186827    -10.205394    -14.731609    0.167440    -0.757327    -0.181288    
-4.434098    80.543015    110.318207    -0.721521    -7.088675    -176.925064    -1.098979    -12.111856    0.857869    0.004620    6.644972    0.974211    3.092833    1.858915    -1.683432    2.531318    -11.770160    -1.546239    -0.155048    18.652344    -1.573675    -44.080532    42.580593    -40.567356    -0.700221    -6.227124    -22.367529    10.788296    -6.143277    2.359177    8.326289    19.515493    -5.026288    30.373810    47.517994    46.285877    -0.529701    -12.219247    29.240204    -9.128676    -11.906368    -2.276667    -0.112568    -7.374337    -4.693455    -1.857629    14.309617    -3.246403    -0.969910    -14.172660    -4.282059    -0.783792    1.068174    0.867150    -1.971556    -3.239367    2.293910    3.399882    7.639200    3.362987    -4.188734    -10.298855    -14.770844    0.165816    -0.828214    -0.179547    
